PathFileType	4	(X/Y/Z)	RBDS023\RBDS023runT35.trc
DataRate	CameraRate	NumFrames	NumMarkers	Units	OrigDataRate	OrigDataStartFrame	OrigNumFrames
150.000000	150.000000	4	33	mm	150.000000	3937	4500
Frame#	Time	L.ASIS			L.Heel.Bottom			L.Heel.Lateral			L.Heel.Top			L.Iliac.Crest			L.MT1			L.MT5			L.PSIS			L.Shank.Bottom.Lateral			L.Shank.Bottom.Medial			L.Shank.Top.Lateral			L.Shank.Top.Medial			L.Thigh.Bottom.Lateral			L.Thigh.Bottom.Medial			L.Thigh.Top.Lateral			L.Thigh.Top.Medial			R.ASIS			R.ASY			R.Heel.Bottom			R.Heel.Lateral			R.Heel.Top			R.Iliac.Crest			R.MT1			R.MT5			R.PSIS			R.Shank.Bottom.Lateral			R.Shank.Bottom.Medial			R.Shank.Top.Lateral			R.Shank.Top.Medial			R.Thigh.Bottom.Lateral			R.Thigh.Bottom.Medial			R.Thigh.Top.Lateral			R.Thigh.Top.Medial			
		X1	Y1	Z1	X2	Y2	Z2	X3	Y3	Z3	X4	Y4	Z4	X5	Y5	Z5	X6	Y6	Z6	X7	Y7	Z7	X8	Y8	Z8	X9	Y9	Z9	X10	Y10	Z10	X11	Y11	Z11	X12	Y12	Z12	X13	Y13	Z13	X14	Y14	Z14	X15	Y15	Z15	X16	Y16	Z16	X17	Y17	Z17	X18	Y18	Z18	X19	Y19	Z19	X20	Y20	Z20	X21	Y21	Z21	X22	Y22	Z22	X23	Y23	Z23	X24	Y24	Z24	X25	Y25	Z25	X26	Y26	Z26	X27	Y27	Z27	X28	Y28	Z28	X29	Y29	Z29	X30	Y30	Z30	X31	Y31	Z31	X32	Y32	Z32	X33	Y33	Z33	

3938	26.24666666666667	2348.254347633748	967.6339554897133	939.1349189752345	2179.301891257354	32.64181421581104	1047.578399168557	2206.365082409692	53.90826898063452	1008.260026308281	2193.404369320573	77.88447693337717	1052.775223684097	2262.083294328379	1025.630832613176	899.4739461554799	2407.829378624044	33.82485180774918	1080.430858266084	2367.065115289633	35.80167332437492	963.479588203971	2172.249195248711	999.1286042503339	1012.061529491478	2297.792906763934	144.5164919967251	983.3134586109172	2255.352292274823	162.8804603385943	1005.19315232907	2316.914692358227	217.6037023386396	953.4512117032818	2276.423295362779	240.6698755323572	979.4704723965255	2370.87895737613	626.5756300763858	882.4559084953939	2316.478511780268	604.1112829360333	921.7028798838447	2320.544589913583	724.2440295956627	871.8785056789235	2268.626664407756	703.2694708768638	910.1120228865466	2363.894452997564	948.2136749088073	1153.749788117462	1902.425484401339	367.0005003814575	1122.902927365656	1878.270721592984	565.3850659314296	1101.67322478232	1895.529112180974	536.8118477708269	1146.566040742209	1922.086058136667	546.2882318086098	1098.460787167233	2305.291213521877	1029.818871025224	1206.849785748951	1844.711752572993	341.855277800425	1083.626684512189	1857.364597850711	378.4726734361299	1191.05559132215	2183.503614035314	998.2588149248468	1118.559205805775	2008.390542907215	473.2734585766886	1162.111520697694	2011.011137060749	520.0377699392063	1132.068039074432	2088.386845573277	479.9748990294456	1176.8771627956	2089.872761518	524.4247180049456	1146.13579427717	2323.976872594871	554.3404859424048	1196.374440443475	2270.463597972974	544.35360339022	1147.345739584449	2287.517423032478	656.6945183550705	1211.335382989529	2237.220487769201	647.2644324231211	1164.841865027374	
3939	26.25333333333333	2346.175126576466	965.4228496862868	938.1634560550839	2155.996580217117	32.85629126823875	1047.685231679349	2182.999087221691	54.07892988797842	1008.287827996386	2169.998119627142	78.09183081319345	1052.714745496905	2259.155876301798	1022.625530596044	899.585113164396	2384.216895435365	34.08732019675777	1080.262736179127	2343.406638651291	36.0910252007488	963.4838737226672	2170.357407886645	998.0388158630091	1012.398233681537	2276.419263659724	143.9328555601498	983.172761075841	2234.460381723803	163.5558457919876	1004.828815540453	2297.781472285328	216.3426401070413	953.2266101206822	2257.868300115036	240.6019271679069	979.0354724979737	2362.535091616754	622.9555965872463	882.1149150434154	2307.578264767622	601.7800192321531	921.3132713116169	2314.519685793348	721.788483680197	871.6935337119776	2262.180631034732	702.0502571455996	910.0438681474412	2361.951735214893	946.5192362357321	1153.811820219123	1920.646828208921	360.821056053557	1123.32125290368	1890.200272193686	558.3961109653898	1102.978369861693	1908.779409074233	530.3389116390093	1147.784021165951	1934.595974467643	540.8320826431172	1099.480013002437	2300.87566898476	1027.996779952967	1206.910510655571	1863.424473540291	334.0805573380275	1084.651137246032	1876.037522277623	370.7339447537752	1192.106229688658	2181.650531990923	997.1118399612086	1118.342461220664	2023.328936588731	468.9766954853112	1162.702424834805	2025.144665782151	515.987050524868	1133.026705524532	2103.199539038359	476.9270393479415	1177.501373014058	2103.911513127886	521.6150835058908	1147.129641452496	2336.182786918184	555.3775532518021	1197.646636494953	2282.458149812894	542.8470937080249	1149.519836176322	2295.746250137532	656.200407172163	1212.581780486854	2245.038417347106	644.2858293474146	1167.110247486883	
3940	26.26	2344.382134596981	963.9051617307078	937.294405456494	2132.538915053438	33.09584170883234	1047.81279133266	2159.513224038086	54.23641825977198	1008.33492223991	2146.477561253342	78.3302474163464	1052.653933632676	2256.580292499083	1020.812744430989	899.6087006297322	2360.536377131666	34.15444502379239	1080.076079701282	2319.688069080561	36.15948848787496	963.5415820545303	2168.750157159492	997.6735810081933	1012.513303085583	2254.639415511921	143.4430740372921	983.0370473674262	2213.180412258442	164.1671600097943	1004.561725208276	2277.971897390443	215.199762425229	953.0651444769827	2238.646686208459	240.5053220275171	978.7325577103996	2353.601583399694	619.7595596768039	881.8359649149658	2297.896533385227	599.9870176799915	920.7358667545805	2308.236385269457	719.8533108378041	871.5925932203744	2255.326128137487	701.4716579337615	909.8858714229762	2360.195399619277	945.8836002751361	1153.945626062758	1939.386253530409	353.441895517855	1123.53956439206	1901.557705617006	549.7719531913201	1104.028666091075	1921.518824653212	522.4191750613624	1148.746573597862	1946.573120514215	534.0418034520179	1100.303988108194	2296.669374762468	1027.319169476832	1206.779162443303	1882.93569845318	324.8202538323862	1085.33731929079	1895.042964864389	361.5867908980544	1192.862987899292	2179.997726349912	996.7152554347032	1118.023307937992	2038.089423482587	463.9879250354061	1163.093226901134	2038.781638637246	511.2321352855315	1133.805195111561	2117.736753489728	473.7042706928275	1177.927234405187	2117.37058299841	518.6187442638319	1147.961057521779	2348.356133003604	557.7723448457846	1198.763725110003	2294.615003192425	542.6992532432678	1151.424888519445	2303.996646110659	656.8911034773264	1213.670564560436	2253.062451329823	642.4938023253858	1169.152916298955	
3941	26.26666666666667	2342.905725591256	963.0545119193982	936.5927397701079	2108.941243876307	33.45661188938924	1047.958671715422	2135.929384722071	54.47729804626166	1008.403139007987	2122.876004130169	78.69227319056752	1052.601286452734	2254.495957142395	1020.169208554012	899.5269272838522	2336.811276156879	34.03387812310828	1079.905332867898	2295.921022125913	36.06582676838706	963.6662800655442	2167.450974018172	997.9940433869128	1012.412887190547	2232.534724577211	143.1421748679752	982.9364286918926	2191.582325362395	164.8229333702709	1004.418207094881	2257.594928059537	214.287033003627	952.9905768286338	2218.85500907084	240.5057003735214	978.5799562410349	2344.135788361367	617.059815732362	881.6219270036271	2287.544251965052	598.8022858130446	920.0271248454602	2301.718490901301	718.4664307763907	871.5716385972889	2248.131467009245	701.558730891251	909.6744049006832	2358.661870545405	946.2934166246612	1154.13733159683	1958.631555825491	344.9937934105811	1123.558306315461	1912.422929562838	539.5222593254459	1104.82063312262	1933.805152428034	513.0592901754115	1149.43916453656	1958.059592823033	525.908674672737	1100.91230070747	2292.862311308334	1027.732617217091	1206.490530012923	1903.262750563953	314.2274453360352	1085.6697077352	1914.403412671378	351.1441996279686	1193.302977600915	2178.577301766089	997.0585225093174	1117.621972584126	2052.658865621694	458.3342241987008	1163.271490684112	2051.919720981258	505.7790554460027	1134.38752163095	2131.95558720799	470.3136883741755	1178.149980517562	2130.218993306192	515.4191393715372	1148.610546730077	2360.333520198041	561.4752401623504	1199.697161816293	2306.751990320451	543.9088545860227	1153.01778884004	2312.148476669456	658.7371140440731	1214.589702034465	2261.176245198536	641.9130864952508	1170.928546373002	
